<?xml version="1.0" encoding="UTF-8" standalone="no"?><!DOCTYPE svg PUBLIC "-//W3C//DTD SVG 1.1//EN" "http://www.w3.org/Graphics/SVG/1.1/DTD/svg11.dtd"><svg width="100%" height="100%" viewBox="0 0 465 109" version="1.1" xmlns="http://www.w3.org/2000/svg" xmlns:xlink="http://www.w3.org/1999/xlink" xml:space="preserve" xmlns:serif="http://www.serif.com/" style="fill-rule:evenodd;clip-rule:evenodd;stroke-linejoin:round;stroke-miterlimit:1.41421;"><path d="M84.15,18.815c0,2.502 -0.443,5.047 -1.329,7.636c-0.886,2.589 -2.093,5.142 -3.622,7.662c-1.529,2.519 -3.318,4.942 -5.369,7.27c-2.05,2.328 -4.221,4.483 -6.515,6.463c-2.293,1.981 -4.673,3.744 -7.14,5.29c-2.467,1.547 -4.865,2.771 -7.193,3.675c-0.382,-0.556 -0.86,-1.225 -1.433,-2.007c-0.573,-0.782 -1.19,-1.598 -1.85,-2.449c-0.66,-0.852 -1.329,-1.703 -2.007,-2.554c-0.677,-0.852 -1.329,-1.642 -1.954,-2.372c4.969,-1.946 9.425,-4.256 13.369,-6.932c3.943,-2.675 7.296,-5.481 10.059,-8.417c2.762,-2.936 4.882,-5.907 6.358,-8.913c1.477,-3.005 2.215,-5.811 2.215,-8.417c0,-0.347 -0.052,-0.712 -0.156,-1.095c-0.104,-0.382 -0.278,-0.712 -0.521,-0.99c-0.243,-0.278 -0.565,-0.478 -0.964,-0.599c-0.4,-0.122 -0.878,-0.113 -1.434,0.026c-1.633,0.347 -3.431,0.99 -5.394,1.928c-1.963,0.938 -4.031,2.111 -6.202,3.518c-2.172,1.408 -4.431,3.032 -6.776,4.874c-2.345,1.841 -4.717,3.822 -7.114,5.941c-1.286,4.031 -2.763,8.296 -4.431,12.796c-1.667,4.5 -3.474,8.982 -5.42,13.447c-1.946,4.465 -3.987,8.799 -6.124,13.004c-2.137,4.204 -4.309,8.052 -6.515,11.544c-2.207,3.492 -4.413,6.515 -6.619,9.069c-2.207,2.554 -4.335,4.387 -6.385,5.499c-0.521,0.278 -1.155,0.539 -1.902,0.782c-0.748,0.243 -1.677,0.417 -2.789,0.521c-0.417,0.035 -0.912,-0.139 -1.485,-0.521c-0.574,-0.382 -1.156,-0.869 -1.746,-1.46c-0.591,-0.59 -1.182,-1.251 -1.772,-1.98c-0.591,-0.73 -1.138,-1.425 -1.642,-2.085c-0.504,-0.66 -0.921,-1.251 -1.251,-1.772c-0.33,-0.521 -0.547,-0.869 -0.652,-1.042c-0.278,-0.522 -0.425,-1.138 -0.443,-1.851c-0.017,-0.712 0.061,-1.416 0.235,-2.111c0.695,-2.328 1.668,-4.882 2.919,-7.661c1.251,-2.78 2.719,-5.69 4.404,-8.73c1.685,-3.041 3.561,-6.168 5.629,-9.382c2.067,-3.214 4.291,-6.411 6.671,-9.59c2.38,-3.179 4.882,-6.315 7.505,-9.408c2.624,-3.092 5.325,-6.046 8.105,-8.86c1.772,-5.525 3.232,-10.754 4.378,-15.688c1.147,-4.934 1.824,-9.226 2.033,-12.874c1.39,0.556 2.71,1.268 3.961,2.137c1.251,0.869 2.38,1.772 3.388,2.71c1.007,0.938 1.893,1.876 2.658,2.815c0.764,0.938 1.372,1.772 1.824,2.501c-0.069,0.591 -0.156,1.19 -0.26,1.799c-0.105,0.608 -0.244,1.259 -0.417,1.954c3.509,-2.258 6.958,-4.022 10.345,-5.29c3.388,-1.268 6.68,-1.903 9.877,-1.903c0.66,0 1.381,0.209 2.163,0.626c0.782,0.417 1.572,0.964 2.372,1.642c0.799,0.677 1.572,1.433 2.319,2.267c0.747,0.834 1.416,1.676 2.007,2.528c0.59,0.851 1.068,1.65 1.433,2.397c0.365,0.747 0.565,1.364 0.599,1.851l0,0.781Zm-75.47,65.515c0.8,0 1.877,-0.886 3.232,-2.658c1.355,-1.772 2.875,-4.187 4.56,-7.245c1.686,-3.057 3.466,-6.619 5.343,-10.684c1.876,-4.065 3.735,-8.374 5.576,-12.926c-2.745,3.266 -5.29,6.498 -7.635,9.694c-2.346,3.197 -4.378,6.229 -6.098,9.095c-1.72,2.867 -3.067,5.508 -4.039,7.923c-0.973,2.415 -1.46,4.473 -1.46,6.176c0,0.417 0.174,0.625 0.521,0.625Z" style="fill:#353535;fill-rule:nonzero;"/><path d="M75.498,86.78c-0.521,0 -1.181,-0.182 -1.98,-0.547c-0.799,-0.365 -1.564,-0.817 -2.294,-1.355c-0.729,-0.539 -1.355,-1.138 -1.876,-1.799c-0.521,-0.66 -0.782,-1.303 -0.782,-1.928c0.348,-1.529 0.817,-3.284 1.408,-5.264c0.59,-1.981 1.224,-3.996 1.902,-6.046c0.678,-2.05 1.39,-4.057 2.137,-6.02c0.747,-1.963 1.425,-3.709 2.033,-5.238c0.608,-1.529 1.138,-2.762 1.589,-3.701c0.452,-0.938 0.747,-1.407 0.886,-1.407c0.209,0 0.73,0.226 1.564,0.678c0.834,0.451 1.711,0.999 2.632,1.642c0.921,0.642 1.746,1.32 2.476,2.032c0.729,0.713 1.094,1.329 1.094,1.851c0,0.104 -0.017,0.234 -0.052,0.39c-0.035,0.157 -0.087,0.357 -0.156,0.6c-0.278,0.868 -0.634,1.893 -1.069,3.075c-0.434,1.181 -0.894,2.406 -1.381,3.674c-0.486,1.269 -0.973,2.537 -1.459,3.805c-0.487,1.268 -0.921,2.458 -1.303,3.57c-0.383,1.112 -0.695,2.085 -0.938,2.919c-0.244,0.834 -0.365,1.442 -0.365,1.824c0,0.209 0.104,0.313 0.312,0.313c0.383,0 0.956,-0.226 1.72,-0.678c0.765,-0.451 1.642,-1.042 2.632,-1.772c0.991,-0.729 2.024,-1.529 3.102,-2.397c1.077,-0.869 2.11,-1.729 3.101,-2.58c0.99,-0.851 1.885,-1.625 2.684,-2.319c0.799,-0.695 1.407,-1.217 1.824,-1.564c0.313,0.313 0.686,0.712 1.121,1.199c0.434,0.486 0.842,0.938 1.225,1.355c-0.765,0.764 -1.72,1.694 -2.867,2.788c-1.147,1.095 -2.389,2.215 -3.727,3.362c-1.337,1.147 -2.727,2.293 -4.169,3.44c-1.442,1.147 -2.841,2.172 -4.196,3.075c-1.355,0.903 -2.623,1.633 -3.805,2.189c-1.181,0.556 -2.189,0.834 -3.023,0.834Zm20.64,-49.201c-0.035,0.139 -0.165,0.477 -0.391,1.016c-0.226,0.539 -0.495,1.164 -0.808,1.876c-0.313,0.713 -0.669,1.46 -1.068,2.241c-0.4,0.782 -0.791,1.503 -1.173,2.163c-0.382,0.661 -0.747,1.208 -1.095,1.642c-0.347,0.435 -0.625,0.652 -0.833,0.652c-0.626,-0.035 -1.382,-0.226 -2.268,-0.574c-0.886,-0.347 -1.737,-0.738 -2.554,-1.172c-0.816,-0.435 -1.511,-0.86 -2.084,-1.277c-0.574,-0.417 -0.86,-0.713 -0.86,-0.886c0,-0.73 0.208,-1.677 0.625,-2.841c0.417,-1.164 0.903,-2.293 1.459,-3.388c0.556,-1.094 1.121,-2.041 1.694,-2.84c0.574,-0.799 1.017,-1.199 1.329,-1.199c0.626,0 1.39,0.2 2.294,0.599c0.903,0.4 1.78,0.86 2.632,1.382c0.851,0.521 1.581,1.033 2.189,1.537c0.608,0.504 0.912,0.86 0.912,1.069Z" style="fill:#353535;fill-rule:nonzero;"/><path d="M98.9,87.77c-0.625,0 -1.338,-0.2 -2.137,-0.599c-0.799,-0.4 -1.615,-0.938 -2.449,-1.616c-0.834,-0.677 -1.642,-1.477 -2.424,-2.397c-0.782,-0.921 -1.433,-1.885 -1.954,-2.893c-0.209,-0.382 -0.348,-0.817 -0.417,-1.303c-0.07,-0.487 -0.105,-1.112 -0.105,-1.876c0,-1.981 0.304,-3.97 0.912,-5.968c0.609,-1.998 1.451,-3.9 2.528,-5.707c1.077,-1.807 2.372,-3.501 3.883,-5.082c1.512,-1.581 3.154,-2.945 4.926,-4.091c1.772,-1.147 3.665,-2.05 5.681,-2.711c2.015,-0.66 4.065,-0.99 6.15,-0.99c0.313,0 0.738,0.165 1.277,0.495c0.538,0.33 1.12,0.773 1.746,1.329c0.625,0.556 1.259,1.182 1.902,1.877c0.643,0.695 1.225,1.398 1.746,2.11c0.521,0.713 0.947,1.408 1.277,2.085c0.33,0.678 0.495,1.277 0.495,1.798c-0.173,0.661 -0.712,1.382 -1.615,2.163c-0.904,0.782 -1.972,1.512 -3.206,2.189c-1.233,0.678 -2.528,1.243 -3.883,1.694c-1.355,0.452 -2.536,0.678 -3.544,0.678c-0.591,0 -0.886,-0.174 -0.886,-0.521c0,-0.383 0.261,-0.947 0.782,-1.694c0.521,-0.747 1.103,-1.564 1.746,-2.45c0.643,-0.886 1.225,-1.772 1.746,-2.658c0.521,-0.886 0.782,-1.642 0.782,-2.267c0,-0.313 -0.078,-0.574 -0.235,-0.782c-0.156,-0.208 -0.373,-0.313 -0.651,-0.313c-0.765,0 -1.564,0.348 -2.398,1.043c-0.834,0.695 -1.668,1.615 -2.502,2.762c-0.834,1.147 -1.633,2.458 -2.397,3.935c-0.765,1.477 -1.433,2.997 -2.007,4.561c-0.573,1.563 -1.033,3.127 -1.381,4.69c-0.347,1.564 -0.521,2.989 -0.521,4.274c0,0.765 0.226,1.295 0.677,1.59c0.452,0.295 1.147,0.443 2.085,0.443c2.328,0 4.578,-0.391 6.75,-1.173c2.171,-0.782 4.256,-1.789 6.254,-3.023c1.998,-1.233 3.9,-2.614 5.707,-4.143c1.807,-1.529 3.51,-3.058 5.108,-4.587c0.382,0.452 0.851,0.895 1.407,1.329c0.556,0.435 0.973,0.808 1.251,1.121c-2.154,2.258 -4.439,4.404 -6.854,6.437c-2.414,2.032 -4.96,3.804 -7.635,5.316c-2.676,1.511 -5.481,2.71 -8.418,3.596c-2.936,0.886 -6.002,1.329 -9.199,1.329Z" style="fill:#353535;fill-rule:nonzero;"/><path d="M133.56,86.78c-0.591,0 -1.364,-0.269 -2.319,-0.808c-0.956,-0.538 -1.885,-1.199 -2.789,-1.98c-0.903,-0.782 -1.685,-1.59 -2.345,-2.424c-0.66,-0.834 -0.99,-1.546 -0.99,-2.137c0,-1.042 0.286,-2.693 0.86,-4.951c0.573,-2.259 1.329,-4.839 2.267,-7.74c0.938,-2.902 2.006,-6.003 3.205,-9.304c1.199,-3.301 2.406,-6.532 3.623,-9.694l-7.349,0l-0.052,0c-0.035,0 -0.053,-0.035 -0.053,-0.104c0,-0.209 0.079,-0.513 0.235,-0.912c0.156,-0.4 0.347,-0.817 0.573,-1.251c0.226,-0.435 0.487,-0.834 0.782,-1.199c0.295,-0.365 0.582,-0.599 0.86,-0.704l6.776,-0.312c0.973,-2.363 1.902,-4.543 2.788,-6.541c0.886,-1.998 1.677,-3.71 2.372,-5.134c0.173,-0.382 0.356,-0.791 0.547,-1.225c0.191,-0.434 0.469,-0.869 0.834,-1.303c0.365,-0.434 0.851,-0.886 1.459,-1.355c0.608,-0.469 1.433,-0.947 2.476,-1.433c0.764,-0.383 1.694,-0.8 2.788,-1.251c1.095,-0.452 2.172,-0.869 3.232,-1.251c1.059,-0.382 2.024,-0.704 2.892,-0.964c0.869,-0.261 1.494,-0.391 1.877,-0.391c0.347,0 0.521,0.069 0.521,0.208l0,0.104c0,0.035 -0.035,0.122 -0.104,0.261c-0.209,0.347 -0.591,1.103 -1.147,2.267c-0.556,1.164 -1.242,2.624 -2.059,4.378c-0.816,1.755 -1.72,3.753 -2.71,5.994c-0.99,2.241 -2.007,4.613 -3.049,7.114l12.509,-0.469c0.347,0 0.452,0.209 0.313,0.626c-0.139,0.417 -0.4,0.903 -0.782,1.459c-0.382,0.556 -0.826,1.129 -1.329,1.72c-0.504,0.591 -0.93,1.043 -1.277,1.355c-0.07,0.07 -0.209,0.139 -0.417,0.209c-0.209,0.069 -0.469,0.104 -0.782,0.104l-10.32,0c-1.251,3.023 -2.449,6.081 -3.596,9.173c-1.147,3.093 -2.172,6.029 -3.075,8.808c-0.904,2.78 -1.625,5.334 -2.163,7.662c-0.539,2.328 -0.808,4.239 -0.808,5.733c0,0.209 0.104,0.313 0.313,0.313c0.382,0 0.955,-0.217 1.72,-0.651c0.764,-0.435 1.624,-0.999 2.58,-1.694c0.955,-0.695 1.971,-1.46 3.049,-2.294c1.077,-0.834 2.102,-1.659 3.075,-2.475c0.973,-0.817 1.85,-1.564 2.632,-2.242c0.782,-0.677 1.381,-1.19 1.798,-1.537c0.313,0.313 0.686,0.712 1.12,1.199c0.435,0.486 0.843,0.938 1.225,1.355c-0.764,0.764 -1.72,1.694 -2.866,2.788c-1.147,1.095 -2.389,2.215 -3.727,3.362c-1.338,1.147 -2.728,2.293 -4.169,3.44c-1.442,1.147 -2.85,2.172 -4.222,3.075c-1.373,0.903 -2.65,1.633 -3.831,2.189c-1.181,0.556 -2.172,0.834 -2.971,0.834Z" style="fill:#353535;fill-rule:nonzero;"/><path d="M180.103,79.327c0,0.208 0.105,0.313 0.313,0.313c0.382,0 0.964,-0.226 1.746,-0.678c0.782,-0.452 1.677,-1.025 2.684,-1.72c1.008,-0.695 2.068,-1.477 3.18,-2.345c1.112,-0.869 2.171,-1.712 3.179,-2.528c1.008,-0.817 1.92,-1.573 2.736,-2.267c0.817,-0.695 1.434,-1.217 1.85,-1.564c0.313,0.313 0.687,0.712 1.121,1.199c0.434,0.486 0.843,0.938 1.225,1.355c-0.765,0.764 -1.729,1.685 -2.893,2.762c-1.164,1.077 -2.432,2.198 -3.805,3.362c-1.372,1.164 -2.797,2.311 -4.273,3.44c-1.477,1.129 -2.91,2.137 -4.3,3.023c-1.39,0.886 -2.693,1.607 -3.909,2.163c-1.216,0.556 -2.224,0.834 -3.023,0.834c-0.591,0 -1.251,-0.183 -1.981,-0.548c-0.73,-0.364 -1.416,-0.833 -2.059,-1.407c-0.642,-0.573 -1.181,-1.207 -1.615,-1.902c-0.435,-0.695 -0.652,-1.355 -0.652,-1.981c0,-0.556 0.209,-1.615 0.626,-3.179c0.417,-1.564 0.92,-3.388 1.511,-5.473c-1.563,2.12 -3.092,3.988 -4.586,5.603c-1.495,1.616 -2.867,2.997 -4.118,4.144c-1.251,1.146 -2.345,2.076 -3.283,2.788c-0.939,0.713 -1.634,1.225 -2.085,1.538c-0.278,0.173 -0.608,0.304 -0.991,0.391c-0.382,0.087 -0.729,0.13 -1.042,0.13c-0.66,0 -1.39,-0.2 -2.189,-0.599c-0.799,-0.4 -1.538,-0.895 -2.215,-1.486c-0.678,-0.591 -1.251,-1.251 -1.72,-1.98c-0.469,-0.73 -0.704,-1.425 -0.704,-2.085c0,-0.765 0.252,-2.033 0.756,-3.805c0.504,-1.772 1.181,-3.892 2.033,-6.359c0.851,-2.467 1.85,-5.229 2.997,-8.287c1.146,-3.057 2.38,-6.272 3.7,-9.642c0.07,-0.174 0.13,-0.252 0.183,-0.234c0.052,0.017 0.147,0.026 0.286,0.026c0.66,0.104 1.564,0.373 2.71,0.807c1.147,0.435 2.268,0.913 3.362,1.434c1.095,0.521 2.042,1.016 2.841,1.485c0.799,0.469 1.199,0.791 1.199,0.964c-0.105,0.244 -0.374,0.817 -0.808,1.72c-0.435,0.904 -0.938,1.99 -1.512,3.258c-0.573,1.268 -1.181,2.641 -1.824,4.117c-0.643,1.477 -1.234,2.893 -1.772,4.248c-0.539,1.355 -0.982,2.58 -1.329,3.675c-0.348,1.094 -0.521,1.902 -0.521,2.423c0,0.139 0.069,0.209 0.208,0.209c0.278,0 0.886,-0.374 1.824,-1.121c0.938,-0.747 2.094,-1.92 3.466,-3.518c1.373,-1.598 2.928,-3.657 4.665,-6.176c1.737,-2.519 3.544,-5.551 5.421,-9.095l1.459,-4.118c0.104,-0.278 0.33,-0.417 0.677,-0.417c0.244,0 0.774,0.235 1.59,0.704c0.817,0.469 1.685,1.008 2.606,1.616c0.921,0.608 1.746,1.216 2.476,1.824c0.73,0.608 1.129,1.034 1.199,1.277c0,0.104 -0.018,0.286 -0.053,0.547c-0.034,0.261 -0.086,0.478 -0.156,0.652c-0.347,0.938 -0.747,2.041 -1.199,3.309c-0.451,1.268 -0.912,2.589 -1.381,3.961c-0.469,1.373 -0.929,2.754 -1.381,4.144c-0.452,1.39 -0.86,2.684 -1.225,3.883c-0.365,1.199 -0.66,2.258 -0.886,3.179c-0.226,0.921 -0.339,1.59 -0.339,2.007Z" style="fill:#353535;fill-rule:nonzero;"/><path d="M219.298,62.336c-0.452,1.355 -1.017,2.901 -1.694,4.638c-0.678,1.738 -1.329,3.44 -1.955,5.108c-0.625,1.668 -1.155,3.179 -1.589,4.535c-0.435,1.355 -0.652,2.328 -0.652,2.918c0,0.209 0.104,0.313 0.313,0.313c0.382,0 0.955,-0.226 1.72,-0.678c0.764,-0.451 1.642,-1.042 2.632,-1.772c0.99,-0.729 2.024,-1.529 3.101,-2.397c1.077,-0.869 2.111,-1.729 3.101,-2.58c0.99,-0.851 1.885,-1.625 2.684,-2.319c0.799,-0.695 1.408,-1.217 1.825,-1.564c0.312,0.313 0.686,0.712 1.12,1.199c0.434,0.486 0.843,0.938 1.225,1.355c-0.765,0.764 -1.72,1.694 -2.867,2.788c-1.146,1.095 -2.389,2.215 -3.726,3.362c-1.338,1.147 -2.728,2.293 -4.17,3.44c-1.442,1.147 -2.849,2.172 -4.222,3.075c-1.372,0.903 -2.649,1.633 -3.83,2.189c-1.182,0.556 -2.172,0.834 -2.971,0.834c-0.521,0 -1.182,-0.182 -1.981,-0.547c-0.799,-0.365 -1.563,-0.817 -2.293,-1.355c-0.73,-0.539 -1.355,-1.138 -1.876,-1.799c-0.522,-0.66 -0.782,-1.303 -0.782,-1.928c0.521,-2.328 1.042,-4.361 1.563,-6.098c0.522,-1.737 1.008,-3.223 1.46,-4.456c0.451,-1.234 0.851,-2.233 1.198,-2.997c0.348,-0.765 0.609,-1.338 0.782,-1.72c-0.417,-0.174 -0.816,-0.365 -1.198,-0.574c-0.383,-0.208 -0.765,-0.416 -1.147,-0.625c-0.556,0.591 -1.173,1.216 -1.85,1.876c-0.678,0.661 -1.364,1.321 -2.059,1.981c-0.695,0.66 -1.39,1.303 -2.085,1.928c-0.695,0.626 -1.32,1.199 -1.876,1.72l-2.502,-2.554c0.903,-0.868 1.989,-1.919 3.257,-3.153c1.269,-1.233 2.511,-2.476 3.727,-3.726c-0.869,-0.522 -1.65,-1.017 -2.345,-1.486c-0.695,-0.469 -1.286,-0.895 -1.772,-1.277c-0.591,-0.417 -1.112,-0.799 -1.564,-1.146c-0.209,-0.105 -0.313,-0.331 -0.313,-0.678c0,-0.382 0.148,-0.929 0.443,-1.642c0.296,-0.712 0.669,-1.476 1.121,-2.293c0.452,-0.817 0.938,-1.651 1.459,-2.502c0.521,-0.851 1.025,-1.624 1.512,-2.319c0.486,-0.695 0.912,-1.26 1.277,-1.694c0.364,-0.434 0.599,-0.652 0.703,-0.652c0.07,0 0.304,0.087 0.704,0.261c0.399,0.174 0.825,0.374 1.277,0.599c0.452,0.226 0.869,0.478 1.251,0.756c0.382,0.278 0.625,0.521 0.729,0.73c0.035,0.174 0.07,0.538 0.105,1.094c0.034,0.556 0.069,1.234 0.104,2.033c1.355,0.695 2.745,1.485 4.169,2.372c1.425,0.886 2.728,1.728 3.909,2.527c1.39,0.904 2.711,1.825 3.962,2.763c0.451,0.278 0.738,0.625 0.86,1.042c0.121,0.417 0.13,0.782 0.026,1.095Z" style="fill:#353535;fill-rule:nonzero;"/><path d="M264.851,71.092c-3.197,3.127 -6.211,5.75 -9.043,7.87c-2.832,2.119 -5.534,3.822 -8.105,5.108c-2.571,1.285 -5.029,2.206 -7.375,2.762c-2.345,0.556 -4.63,0.834 -6.854,0.834c-0.938,0 -1.98,-0.347 -3.127,-1.042c-1.147,-0.695 -2.215,-1.538 -3.205,-2.528c-0.991,-0.991 -1.816,-2.024 -2.476,-3.101c-0.66,-1.078 -0.99,-1.998 -0.99,-2.763c0,-2.849 0.391,-5.464 1.172,-7.844c0.782,-2.38 1.816,-4.526 3.102,-6.437c1.285,-1.911 2.753,-3.596 4.404,-5.055c1.65,-1.46 3.37,-2.676 5.16,-3.649c1.789,-0.973 3.57,-1.702 5.342,-2.189c1.772,-0.486 3.405,-0.729 4.899,-0.729c1.077,0 2.146,0.312 3.206,0.938c1.059,0.625 2.024,1.39 2.892,2.293c0.869,0.903 1.573,1.85 2.111,2.841c0.539,0.99 0.808,1.85 0.808,2.58c0,1.181 -0.495,2.388 -1.485,3.622c-0.991,1.233 -2.389,2.493 -4.196,3.779c-1.807,1.285 -3.979,2.597 -6.515,3.935c-2.537,1.337 -5.334,2.684 -8.391,4.039c-0.105,0.834 -0.157,1.65 -0.157,2.45c0,1.077 0.235,1.806 0.704,2.189c0.469,0.382 1.346,0.573 2.632,0.573c2.293,0 4.456,-0.382 6.489,-1.147c2.033,-0.764 3.987,-1.754 5.863,-2.971c1.877,-1.216 3.684,-2.606 5.421,-4.169c1.737,-1.564 3.457,-3.145 5.16,-4.743l2.554,2.554Zm-18.347,-13.03c-0.695,0 -1.459,0.373 -2.293,1.12c-0.834,0.747 -1.668,1.729 -2.502,2.945c-0.834,1.216 -1.633,2.615 -2.397,4.196c-0.765,1.581 -1.425,3.223 -1.981,4.925c1.286,-0.834 2.545,-1.72 3.779,-2.658c1.233,-0.938 2.337,-1.92 3.31,-2.945c0.972,-1.025 1.754,-2.076 2.345,-3.153c0.591,-1.077 0.886,-2.154 0.886,-3.231c0,-0.313 -0.096,-0.591 -0.287,-0.834c-0.191,-0.244 -0.477,-0.365 -0.86,-0.365Z" style="fill:#353535;fill-rule:nonzero;"/><path d="M319.316,55.925c-0.208,0.243 -0.677,1.147 -1.407,2.71c-0.73,1.564 -1.607,3.579 -2.632,6.046c-1.025,2.467 -2.128,5.316 -3.31,8.548c-1.181,3.231 -2.345,6.645 -3.492,10.241c-1.147,3.597 -2.206,7.288 -3.179,11.076c-0.973,3.787 -1.755,7.47 -2.346,11.049c-0.938,0.278 -2.006,0.556 -3.205,0.834c-1.199,0.278 -2.389,0.539 -3.57,0.782c-1.182,0.243 -2.259,0.443 -3.232,0.599c-0.973,0.157 -1.685,0.235 -2.137,0.235c0.626,-2.676 1.243,-5.229 1.851,-7.662c0.608,-2.432 1.277,-4.803 2.006,-7.114c0.73,-2.311 1.538,-4.595 2.424,-6.854c0.886,-2.258 1.92,-4.586 3.101,-6.984c-1.32,1.703 -2.719,3.353 -4.196,4.951c-1.476,1.599 -2.988,3.023 -4.534,4.274c-1.546,1.251 -3.11,2.25 -4.691,2.997c-1.581,0.747 -3.153,1.121 -4.717,1.121c-1.077,0 -2.284,-0.296 -3.622,-0.886c-1.338,-0.591 -2.684,-1.399 -4.039,-2.424c-1.356,-1.025 -2.676,-2.241 -3.962,-3.648c-1.285,-1.408 -2.423,-2.928 -3.413,-4.561c-0.991,-1.633 -1.79,-3.353 -2.398,-5.16c-0.608,-1.806 -0.912,-3.613 -0.912,-5.42c0,-2.988 0.417,-6.255 1.251,-9.799c0.834,-3.544 1.998,-7.192 3.492,-10.945c1.494,-3.753 3.301,-7.531 5.42,-11.336c2.12,-3.805 4.448,-7.462 6.984,-10.971c2.537,-3.51 5.256,-6.785 8.157,-9.825c2.902,-3.04 5.916,-5.69 9.043,-7.948c3.127,-2.259 6.307,-4.04 9.538,-5.343c3.232,-1.303 6.463,-1.954 9.694,-1.954c1.217,0 2.407,0.269 3.571,0.808c1.164,0.538 2.258,1.216 3.283,2.032c1.025,0.817 1.963,1.712 2.815,2.685c0.851,0.973 1.572,1.876 2.163,2.71c0.695,1.008 1.329,2.172 1.902,3.492c0.573,1.32 0.86,2.641 0.86,3.961c0,2.224 -0.339,4.569 -1.016,7.036c-0.678,2.467 -1.607,4.917 -2.789,7.349c-1.181,2.432 -2.571,4.787 -4.169,7.062c-1.599,2.276 -3.319,4.318 -5.16,6.125l-9.173,-8.548c1.042,-1.077 2.293,-2.467 3.752,-4.17c1.46,-1.702 2.85,-3.622 4.17,-5.759c1.32,-2.137 2.45,-4.413 3.388,-6.828c0.938,-2.415 1.407,-4.873 1.407,-7.375c0,-0.417 -0.017,-0.886 -0.052,-1.407c-0.035,-0.521 -0.148,-1.008 -0.339,-1.459c-0.191,-0.452 -0.486,-0.834 -0.886,-1.147c-0.4,-0.313 -0.964,-0.469 -1.694,-0.469c-1.946,0 -4.074,0.73 -6.385,2.189c-2.31,1.459 -4.69,3.431 -7.14,5.916c-2.45,2.484 -4.917,5.385 -7.401,8.704c-2.484,3.318 -4.873,6.836 -7.167,10.554c-2.293,3.718 -4.439,7.531 -6.436,11.44c-1.998,3.909 -3.736,7.705 -5.212,11.389c-1.477,3.683 -2.641,7.14 -3.492,10.371c-0.852,3.232 -1.277,6.029 -1.277,8.392c0,2.189 0.269,3.752 0.807,4.691c0.539,0.938 1.295,1.407 2.268,1.407c1.181,0 2.519,-0.391 4.013,-1.173c1.494,-0.782 3.049,-1.807 4.665,-3.075c1.615,-1.268 3.231,-2.693 4.847,-4.274c1.616,-1.581 3.127,-3.179 4.534,-4.795c1.408,-1.616 2.676,-3.17 3.805,-4.665c1.129,-1.494 2.024,-2.762 2.684,-3.804c0.626,-1.008 1.164,-2.05 1.616,-3.128c0.452,-1.077 0.973,-2.171 1.564,-3.283c1.32,0 2.545,0.017 3.674,0.052c1.129,0.035 2.241,0.078 3.336,0.13c1.094,0.052 2.18,0.096 3.257,0.131c1.077,0.034 2.224,0.069 3.44,0.104Z" style="fill:#353535;fill-rule:nonzero;"/><path d="M347.722,62.336c-0.452,1.355 -1.017,2.901 -1.694,4.638c-0.678,1.738 -1.329,3.44 -1.955,5.108c-0.625,1.668 -1.155,3.179 -1.589,4.535c-0.435,1.355 -0.652,2.328 -0.652,2.918c0,0.209 0.104,0.313 0.313,0.313c0.382,0 0.955,-0.226 1.72,-0.678c0.764,-0.451 1.641,-1.042 2.632,-1.772c0.99,-0.729 2.024,-1.529 3.101,-2.397c1.077,-0.869 2.111,-1.729 3.101,-2.58c0.99,-0.851 1.885,-1.625 2.684,-2.319c0.799,-0.695 1.407,-1.217 1.824,-1.564c0.313,0.313 0.687,0.712 1.121,1.199c0.434,0.486 0.843,0.938 1.225,1.355c-0.765,0.764 -1.72,1.694 -2.867,2.788c-1.146,1.095 -2.389,2.215 -3.726,3.362c-1.338,1.147 -2.728,2.293 -4.17,3.44c-1.442,1.147 -2.849,2.172 -4.222,3.075c-1.372,0.903 -2.649,1.633 -3.831,2.189c-1.181,0.556 -2.171,0.834 -2.97,0.834c-0.522,0 -1.182,-0.182 -1.981,-0.547c-0.799,-0.365 -1.564,-0.817 -2.293,-1.355c-0.73,-0.539 -1.355,-1.138 -1.877,-1.799c-0.521,-0.66 -0.781,-1.303 -0.781,-1.928c0.521,-2.328 1.042,-4.361 1.563,-6.098c0.521,-1.737 1.008,-3.223 1.46,-4.456c0.451,-1.234 0.851,-2.233 1.198,-2.997c0.348,-0.765 0.608,-1.338 0.782,-1.72c-0.417,-0.174 -0.816,-0.365 -1.199,-0.574c-0.382,-0.208 -0.764,-0.416 -1.146,-0.625c-0.556,0.591 -1.173,1.216 -1.85,1.876c-0.678,0.661 -1.364,1.321 -2.059,1.981c-0.695,0.66 -1.39,1.303 -2.085,1.928c-0.695,0.626 -1.32,1.199 -1.876,1.72l-2.502,-2.554c0.903,-0.868 1.989,-1.919 3.257,-3.153c1.269,-1.233 2.511,-2.476 3.727,-3.726c-0.869,-0.522 -1.65,-1.017 -2.345,-1.486c-0.695,-0.469 -1.286,-0.895 -1.773,-1.277c-0.59,-0.417 -1.111,-0.799 -1.563,-1.146c-0.209,-0.105 -0.313,-0.331 -0.313,-0.678c0,-0.382 0.148,-0.929 0.443,-1.642c0.296,-0.712 0.669,-1.476 1.121,-2.293c0.451,-0.817 0.938,-1.651 1.459,-2.502c0.521,-0.851 1.025,-1.624 1.512,-2.319c0.486,-0.695 0.912,-1.26 1.277,-1.694c0.364,-0.434 0.599,-0.652 0.703,-0.652c0.07,0 0.304,0.087 0.704,0.261c0.399,0.174 0.825,0.374 1.277,0.599c0.451,0.226 0.868,0.478 1.251,0.756c0.382,0.278 0.625,0.521 0.729,0.73c0.035,0.174 0.07,0.538 0.105,1.094c0.034,0.556 0.069,1.234 0.104,2.033c1.355,0.695 2.745,1.485 4.169,2.372c1.425,0.886 2.728,1.728 3.909,2.527c1.39,0.904 2.711,1.825 3.962,2.763c0.451,0.278 0.738,0.625 0.86,1.042c0.121,0.417 0.13,0.782 0.026,1.095Z" style="fill:#353535;fill-rule:nonzero;"/><path d="M386.447,79.327c0,0.208 0.104,0.313 0.313,0.313c0.312,0 0.833,-0.226 1.563,-0.678c0.73,-0.452 1.564,-1.025 2.502,-1.72c0.938,-0.695 1.937,-1.477 2.997,-2.345c1.06,-0.869 2.076,-1.72 3.049,-2.554c0.973,-0.834 1.85,-1.599 2.632,-2.294c0.782,-0.695 1.381,-1.233 1.798,-1.615c0.313,0.312 0.704,0.729 1.173,1.251c0.469,0.521 0.894,0.99 1.277,1.407c-0.834,0.764 -1.833,1.694 -2.997,2.788c-1.164,1.095 -2.415,2.233 -3.753,3.414c-1.338,1.181 -2.719,2.354 -4.143,3.518c-1.425,1.164 -2.815,2.198 -4.17,3.101c-1.355,0.904 -2.641,1.642 -3.857,2.215c-1.216,0.574 -2.276,0.86 -3.179,0.86c-0.626,0 -1.312,-0.121 -2.059,-0.364c-0.747,-0.244 -1.433,-0.582 -2.059,-1.017c-0.625,-0.434 -1.146,-0.947 -1.563,-1.537c-0.417,-0.591 -0.626,-1.251 -0.626,-1.981c0,-0.278 -0.008,-0.617 -0.026,-1.016c-0.017,-0.4 0.009,-0.921 0.078,-1.564c0.07,-0.643 0.209,-1.424 0.417,-2.345c0.209,-0.921 0.522,-2.059 0.938,-3.414c-1.146,1.216 -2.493,2.484 -4.039,3.805c-1.546,1.32 -3.17,2.571 -4.873,3.752c-1.703,1.182 -3.414,2.25 -5.134,3.206c-1.72,0.955 -3.31,1.676 -4.769,2.163c-0.174,0.069 -0.313,0.104 -0.417,0.104c-0.104,0 -0.208,0 -0.313,0c-0.347,0 -0.807,-0.174 -1.381,-0.521c-0.573,-0.348 -1.138,-0.808 -1.694,-1.381c-0.556,-0.574 -1.033,-1.225 -1.433,-1.955c-0.4,-0.73 -0.599,-1.459 -0.599,-2.189c0,-0.208 0.104,-0.903 0.312,-2.085c0.209,-1.181 0.704,-2.684 1.486,-4.508c0.782,-1.824 1.937,-3.874 3.466,-6.15c1.529,-2.276 3.613,-4.613 6.254,-7.01c1.355,-1.217 2.815,-2.363 4.378,-3.44c1.321,-0.904 2.832,-1.825 4.535,-2.763c1.702,-0.938 3.492,-1.685 5.368,-2.241c0.07,0 0.13,-0.017 0.183,-0.052c0.052,-0.035 0.13,-0.017 0.234,0.052c0.417,0.139 0.912,0.356 1.485,0.652c0.574,0.295 1.147,0.608 1.72,0.938c0.574,0.33 1.078,0.66 1.512,0.99c0.434,0.33 0.721,0.599 0.86,0.808c0.035,0.069 0.035,0.121 0,0.156l-0.104,0.104c-1.564,0.834 -3.041,1.764 -4.431,2.789c-1.389,1.025 -2.623,1.989 -3.7,2.893c-1.251,1.077 -2.415,2.136 -3.492,3.179c-2.537,2.502 -4.291,4.665 -5.264,6.489c-0.973,1.824 -1.46,3.136 -1.46,3.935c0,0.591 0.244,0.886 0.73,0.886c0.487,0 1.103,-0.2 1.85,-0.599c0.747,-0.4 1.59,-0.939 2.528,-1.616c0.938,-0.678 1.972,-1.477 3.101,-2.398c1.13,-0.92 2.302,-1.885 3.518,-2.892c1.078,-0.869 2.12,-1.807 3.128,-2.815c0.868,-0.834 1.772,-1.789 2.71,-2.866c0.938,-1.078 1.737,-2.172 2.397,-3.284c0,-0.035 0.018,-0.07 0.053,-0.104c0.034,-0.035 0.086,-0.035 0.156,0c0.382,0.278 0.816,0.738 1.303,1.381c0.486,0.643 0.938,1.346 1.355,2.111c0.417,0.764 0.773,1.503 1.068,2.215c0.296,0.712 0.443,1.259 0.443,1.642c-0.799,1.633 -1.415,3.118 -1.85,4.456c-0.434,1.338 -0.764,2.51 -0.99,3.518c-0.226,1.008 -0.365,1.868 -0.417,2.58c-0.052,0.712 -0.078,1.26 -0.078,1.642Z" style="fill:#353535;fill-rule:nonzero;"/><path d="M415.269,58.739c-0.417,1.077 -0.834,2.189 -1.251,3.336c-0.417,1.147 -0.816,2.311 -1.198,3.492c2.189,-2.606 4.004,-4.691 5.446,-6.254c1.442,-1.564 2.641,-2.78 3.596,-3.649c0.956,-0.868 1.746,-1.476 2.372,-1.824c0.625,-0.347 1.199,-0.608 1.72,-0.782c0.313,0 0.842,0.174 1.589,0.521c0.748,0.348 1.547,0.774 2.398,1.277c0.851,0.504 1.659,1.025 2.424,1.564c0.764,0.539 1.303,0.982 1.615,1.329c0.278,0.278 0.313,0.678 0.105,1.199c-0.417,1.112 -0.826,2.232 -1.225,3.362c-0.4,1.129 -0.791,2.284 -1.173,3.466c2.328,-2.676 4.274,-4.822 5.837,-6.437c1.564,-1.616 2.841,-2.858 3.831,-3.727c0.991,-0.869 1.764,-1.442 2.32,-1.72c0.556,-0.278 0.99,-0.417 1.303,-0.417c0.451,0 1.129,0.226 2.032,0.678c0.904,0.451 1.816,1.007 2.737,1.668c0.92,0.66 1.72,1.337 2.397,2.032c0.678,0.695 1.017,1.303 1.017,1.825c0,0.104 -0.018,0.234 -0.053,0.39c-0.034,0.157 -0.086,0.357 -0.156,0.6c-0.278,0.868 -0.634,1.893 -1.068,3.075c-0.435,1.181 -0.895,2.406 -1.382,3.674c-0.486,1.269 -0.973,2.537 -1.459,3.805c-0.486,1.268 -0.921,2.458 -1.303,3.57c-0.382,1.112 -0.695,2.085 -0.938,2.919c-0.243,0.834 -0.365,1.442 -0.365,1.824c0,0.209 0.104,0.313 0.313,0.313c0.382,0 0.955,-0.226 1.72,-0.678c0.764,-0.451 1.641,-1.042 2.632,-1.772c0.99,-0.729 2.024,-1.529 3.101,-2.397c1.077,-0.869 2.111,-1.729 3.101,-2.58c0.99,-0.851 1.885,-1.625 2.684,-2.319c0.799,-0.695 1.407,-1.217 1.824,-1.564c0.313,0.313 0.687,0.712 1.121,1.199c0.434,0.486 0.843,0.938 1.225,1.355c-0.765,0.764 -1.72,1.694 -2.867,2.788c-1.146,1.095 -2.389,2.215 -3.726,3.362c-1.338,1.147 -2.728,2.293 -4.17,3.44c-1.442,1.147 -2.84,2.172 -4.196,3.075c-1.355,0.903 -2.623,1.633 -3.804,2.189c-1.182,0.556 -2.189,0.834 -3.023,0.834c-0.522,0 -1.182,-0.182 -1.981,-0.547c-0.799,-0.365 -1.564,-0.817 -2.293,-1.355c-0.73,-0.539 -1.355,-1.138 -1.877,-1.799c-0.521,-0.66 -0.781,-1.303 -0.781,-1.928c0.312,-1.425 0.729,-3.04 1.251,-4.847c0.521,-1.807 1.094,-3.657 1.72,-5.551c0.625,-1.894 1.276,-3.761 1.954,-5.603c0.678,-1.841 1.329,-3.544 1.955,-5.108c-0.695,0.834 -1.616,1.842 -2.763,3.023c-1.146,1.182 -2.449,2.737 -3.909,4.665c-1.459,1.929 -3.023,4.317 -4.691,7.167c-1.667,2.849 -3.335,6.323 -5.003,10.424c-0.209,0.695 -0.712,1.042 -1.512,1.042c-0.417,0 -0.929,-0.078 -1.537,-0.235c-0.608,-0.156 -1.251,-0.399 -1.929,-0.729c-0.677,-0.33 -1.372,-0.739 -2.084,-1.225c-0.713,-0.487 -1.382,-1.077 -2.007,-1.772c0,-0.243 0.13,-0.982 0.391,-2.215c0.26,-1.234 0.643,-2.806 1.146,-4.717c0.504,-1.911 1.104,-4.048 1.799,-6.411c0.695,-2.363 1.476,-4.795 2.345,-7.297c-0.834,0.904 -1.876,2.059 -3.127,3.466c-1.251,1.408 -2.589,3.11 -4.013,5.108c-1.425,1.998 -2.884,4.317 -4.379,6.958c-1.494,2.641 -2.901,5.629 -4.221,8.965c-0.209,0.729 -0.695,1.094 -1.46,1.094c-0.59,0 -1.259,-0.165 -2.006,-0.495c-0.747,-0.33 -1.512,-0.764 -2.294,-1.303c-0.781,-0.538 -1.563,-1.138 -2.345,-1.798c-0.782,-0.66 -1.485,-1.32 -2.111,-1.981c0,-0.208 0.096,-0.799 0.287,-1.772c0.191,-0.973 0.46,-2.197 0.808,-3.674c0.347,-1.477 0.773,-3.162 1.277,-5.056c0.504,-1.893 1.086,-3.883 1.746,-5.968c0.66,-2.084 1.39,-4.213 2.189,-6.384c0.799,-2.172 1.65,-4.265 2.554,-6.281c1.459,0.695 3.083,1.547 4.873,2.554c1.789,1.008 3.431,2.189 4.925,3.544Z" style="fill:#353535;fill-rule:nonzero;"/></svg>